<svg width="48" height="48" viewBox="0 0 48 48" fill="none" xmlns="http://www.w3.org/2000/svg">
<circle cx="24" cy="24" r="24" fill="url(#paint0_linear_75_145)"/>
<path fill-rule="evenodd" clip-rule="evenodd" d="M27.246 12.1712C28.5092 11.6891 29.8899 11.6065 31.2015 11.9347C32.2928 12.2077 33.2924 12.7542 34.1085 13.5177C35.197 13.1324 36.2285 12.5994 37.1736 11.9327L37.75 12.7499L38.7216 12.9865C38.2945 14.7401 37.4296 16.3536 36.2113 17.6777C36.2363 17.908 36.2492 18.1396 36.25 18.3716L36.25 18.3749C36.25 25.9123 32.6256 31.4187 27.4386 34.1795C22.2759 36.9274 15.6659 36.9027 9.76437 33.624C9.35956 33.3991 9.16211 32.9257 9.28716 32.4798C9.41221 32.034 9.82703 31.7323 10.2898 31.7507C12.5955 31.8424 14.8763 31.3435 16.9204 30.3146C14.8628 29.1257 13.4153 27.6882 12.4325 26.1365C11.2062 24.2002 10.7414 22.1465 10.6573 20.2953C10.5733 18.4484 10.8668 16.7825 11.1764 15.5854C11.3318 14.9846 11.4929 14.4955 11.6167 14.153C11.6787 13.9817 11.7315 13.8465 11.7698 13.752C11.7889 13.7047 11.8045 13.6675 11.8158 13.641L11.8294 13.6092L11.8337 13.5994L11.8352 13.596L11.8357 13.5948C11.836 13.5942 11.8362 13.5937 12.75 13.9999L13.5684 13.4252C14.7365 15.0885 16.2978 16.4371 18.1134 17.3509C19.6381 18.1184 21.3024 18.5592 23 18.6495V18.4188C22.9833 17.0693 23.3808 15.7471 24.1389 14.6304C24.8983 13.5117 25.9829 12.6533 27.246 12.1712ZM13.1218 16.051C13.1188 16.0626 13.1157 16.0744 13.1127 16.0862C12.8363 17.1547 12.5829 18.6138 12.6552 20.2045C12.7273 21.7907 13.1219 23.487 14.1222 25.0664C15.1184 26.6394 16.7536 28.1571 19.4061 29.3361C19.738 29.4835 19.9638 29.7993 19.996 30.1609C20.0283 30.5226 19.8621 30.8733 19.5616 31.0773C17.9381 32.1793 16.1314 32.9571 14.2402 33.3824C18.5528 34.7264 22.9466 34.3048 26.4989 32.414C30.999 30.0188 34.2495 25.2132 34.25 18.3765C34.249 18.0908 34.2214 17.8058 34.1678 17.5251C34.1051 17.1973 34.2102 16.8598 34.4478 16.6254C34.9362 16.1437 35.3632 15.608 35.7218 15.0308C35.1984 15.2581 34.6614 15.4549 34.1133 15.6199C33.7367 15.7333 33.3286 15.6154 33.0705 15.3186C32.4521 14.6076 31.6302 14.1036 30.7161 13.8749C29.8019 13.6461 28.8396 13.7037 27.9592 14.0397C27.0788 14.3757 26.3229 14.974 25.7936 15.7537C25.2643 16.5333 24.9873 17.4567 24.9999 18.399L25.0001 18.4124H25V19.6624C25 20.2046 24.5679 20.648 24.0259 20.662C21.6644 20.7233 19.3243 20.1995 17.2142 19.1374C15.671 18.3607 14.2858 17.3137 13.1218 16.051Z" fill="white"/>
<defs>
<linearGradient id="paint0_linear_75_145" x1="3.02498e-07" y1="24.3582" x2="48" y2="24.3582" gradientUnits="userSpaceOnUse">
<stop stop-color="#7CB4D8"/>
<stop offset="1" stop-color="#BFE6FF" stop-opacity="0"/>
</linearGradient>
</defs>
</svg>
