<svg width="259" height="309" viewBox="0 0 259 309" fill="none" xmlns="http://www.w3.org/2000/svg">
<path d="M183.057 140C185.526 140 187.736 141.537 188.567 143.839L194.498 160.278C196.623 160.807 198.446 161.336 199.991 161.89C201.68 162.495 203.855 163.411 206.543 164.662L220.353 157.354C221.48 156.757 222.771 156.542 224.031 156.74C225.291 156.938 226.453 157.54 227.342 158.455L239.488 171.013C241.101 172.684 241.554 175.129 240.647 177.262L234.171 192.441C235.246 194.415 236.103 196.104 236.758 197.515C237.464 199.052 238.337 201.169 239.379 203.899L254.474 210.367C256.742 211.333 258.144 213.601 257.993 216.028L256.884 233.458C256.809 234.591 256.402 235.676 255.715 236.579C255.028 237.483 254.091 238.165 253.02 238.54L238.724 243.622C238.312 245.596 237.884 247.285 237.43 248.713C236.698 250.918 235.863 253.088 234.927 255.214L242.109 271.09C242.616 272.206 242.752 273.454 242.498 274.653C242.244 275.852 241.613 276.938 240.698 277.752L227.039 289.948C226.14 290.748 225.017 291.254 223.822 291.398C222.627 291.542 221.417 291.318 220.353 290.755L206.274 283.296C204.072 284.462 201.8 285.491 199.47 286.378L193.322 288.68L187.862 303.8C187.457 304.907 186.727 305.866 185.768 306.551C184.808 307.237 183.664 307.616 182.486 307.639L166.526 308C165.316 308.032 164.126 307.688 163.119 307.015C162.113 306.343 161.34 305.375 160.906 304.245L154.472 287.218C152.276 286.468 150.103 285.656 147.953 284.782C146.195 284.022 144.464 283.201 142.762 282.321L126.802 289.142C125.75 289.591 124.591 289.724 123.465 289.526C122.339 289.327 121.295 288.806 120.46 288.025L108.65 276.945C107.77 276.124 107.172 275.047 106.938 273.867C106.704 272.686 106.848 271.462 107.348 270.368L114.21 255.416C113.298 253.645 112.452 251.841 111.674 250.006C110.766 247.761 109.925 245.49 109.154 243.194L94.1177 238.616C92.8955 238.247 91.8295 237.484 91.0852 236.447C90.3409 235.409 89.96 234.155 90.0017 232.879L90.5897 216.742C90.6315 215.69 90.9604 214.668 91.5408 213.789C92.1212 212.909 92.9309 212.205 93.8825 211.753L109.658 204.176C110.388 201.496 111.027 199.413 111.59 197.893C112.382 195.862 113.262 193.867 114.227 191.912L107.39 177.464C106.871 176.367 106.713 175.133 106.94 173.941C107.166 172.749 107.765 171.659 108.65 170.828L120.443 159.69C121.27 158.91 122.304 158.386 123.422 158.18C124.54 157.974 125.693 158.096 126.743 158.53L142.686 165.116C144.45 163.94 146.046 162.991 147.491 162.226C149.213 161.311 151.515 160.353 154.413 159.32L159.957 143.856C160.367 142.724 161.116 141.746 162.102 141.056C163.088 140.366 164.264 139.997 165.467 140H183.057ZM174.203 198.96C160.2 198.96 148.852 210.174 148.852 224.017C148.852 237.86 160.2 249.082 174.203 249.082C188.198 249.082 199.546 237.86 199.546 224.017C199.546 210.174 188.206 198.96 174.203 198.96Z" fill="#67A8D2"/>
<path d="M93.0583 1.53312e-05C95.5279 1.53312e-05 97.7371 1.53722 98.5687 3.83881L104.499 20.2776C106.624 20.8068 108.447 21.336 109.993 21.8904C111.681 22.4952 113.857 23.4108 116.545 24.6624L130.354 17.3544C131.481 16.7572 132.772 16.5417 134.032 16.7401C135.292 16.9385 136.454 17.5402 137.343 18.4548L149.489 31.0128C151.102 32.6844 151.556 35.1288 150.649 37.2624L144.172 52.4412C145.247 54.4152 146.104 56.1036 146.759 57.5148C147.465 59.052 148.339 61.1688 149.38 63.8988L164.475 70.3668C166.743 71.3328 168.146 73.6008 167.995 76.0284L166.886 93.4584C166.81 94.5908 166.404 95.6759 165.717 96.5794C165.03 97.4828 164.093 98.1646 163.022 98.5404L148.725 103.622C148.313 105.596 147.885 107.285 147.431 108.713C146.7 110.918 145.865 113.088 144.928 115.214L152.11 131.09C152.617 132.206 152.754 133.454 152.5 134.653C152.246 135.852 151.615 136.938 150.699 137.752L137.041 149.948C136.141 150.748 135.019 151.254 133.824 151.398C132.629 151.542 131.418 151.318 130.354 150.755L116.276 143.296C114.073 144.462 111.801 145.491 109.472 146.378L103.323 148.68L97.8631 163.8C97.4585 164.907 96.7286 165.866 95.7692 166.551C94.8098 167.237 93.6657 167.616 92.4871 167.639L76.5271 168C75.3172 168.032 74.1272 167.688 73.1208 167.015C72.1144 166.343 71.3412 165.375 70.9075 164.245L64.4731 147.218C62.2777 146.468 60.104 145.656 57.9547 144.782C56.1967 144.022 54.4653 143.201 52.7635 142.321L36.8035 149.142C35.7519 149.591 34.5925 149.724 33.4665 149.526C32.3405 149.327 31.2965 148.806 30.4615 148.025L18.6511 136.945C17.7718 136.124 17.173 135.047 16.9393 133.867C16.7057 132.686 16.849 131.462 17.3491 130.368L24.2119 115.416C23.2992 113.645 22.453 111.841 21.6751 110.006C20.7671 107.761 19.9267 105.49 19.1551 103.194L4.11909 98.616C2.89689 98.2466 1.83088 97.484 1.0866 96.4465C0.342322 95.4091 -0.0385669 94.1549 0.00308674 92.8788L0.591087 76.7424C0.63294 75.6896 0.961835 74.6682 1.5422 73.7888C2.12257 72.9093 2.93232 72.2053 3.88389 71.7528L19.6591 64.176C20.3899 61.4964 21.0283 59.4132 21.5911 57.8928C22.3836 55.8621 23.2636 53.8666 24.2287 51.912L17.3911 37.464C16.8722 36.3668 16.7146 35.1333 16.941 33.9409C17.1674 32.7485 17.7661 31.6587 18.6511 30.828L30.4447 19.6896C31.2714 18.9099 32.3059 18.3856 33.4236 18.18C34.5412 17.9743 35.6945 18.096 36.7447 18.5304L52.6879 25.116C54.4519 23.94 56.0479 22.9908 57.4927 22.2264C59.2147 21.3108 61.5163 20.3532 64.4143 19.32L69.9583 3.85562C70.3681 2.72387 71.1173 1.74622 72.1036 1.05616C73.0898 0.366094 74.265 -0.00274051 75.4687 1.53312e-05H93.0583ZM88.9423 11.5668H79.5931L74.5111 25.7964C74.2123 26.6261 73.7288 27.3771 73.0973 27.9927C72.4657 28.6082 71.7026 29.0722 70.8655 29.3496C67.2031 30.5676 64.5571 31.6176 63.0115 32.4324C61.3735 33.2976 59.2819 34.6164 56.7955 36.3804C55.9817 36.9515 55.0369 37.3079 54.0486 37.4166C53.0604 37.5253 52.0607 37.3827 51.1423 37.002L35.7703 30.66L29.7811 36.3216L36.0223 49.5096C36.7783 51.1056 36.7615 52.9536 35.9719 54.5244C34.2919 57.8928 33.1579 60.3792 32.5867 61.908C32.0155 63.4284 31.2511 66.0408 30.3187 69.6528C30.1076 70.4714 29.7201 71.2339 29.1832 71.8869C28.6463 72.5399 27.9731 73.0675 27.2107 73.4328L12.1747 80.6484L11.8723 88.8804L25.4803 93.0132C27.2863 93.5592 28.7143 94.9452 29.3107 96.726C30.6547 100.758 31.7299 103.732 32.5027 105.596C33.5267 107.963 34.6591 110.281 35.8963 112.543C36.7447 114.122 36.8035 116.004 36.0559 117.634L29.7475 131.393L35.7199 137.004L50.6887 130.603C51.495 130.259 52.3679 130.098 53.244 130.133C54.1202 130.168 54.9775 130.397 55.7539 130.805C58.8199 132.418 61.1047 133.535 62.5495 134.148C64.0195 134.761 66.8335 135.786 70.9159 137.18C71.7263 137.457 72.4657 137.909 73.0814 138.505C73.697 139.1 74.1737 139.824 74.4775 140.624L80.4247 156.341L88.2031 156.173L93.2179 142.279C93.5047 141.486 93.9605 140.765 94.5538 140.166C95.147 139.567 95.8635 139.105 96.6535 138.81L105.364 135.551C107.565 134.736 110.236 133.451 113.353 131.687C114.215 131.202 115.186 130.942 116.175 130.93C117.164 130.919 118.14 131.156 119.014 131.62L132.261 138.634L139.712 131.989L133.193 117.6C132.859 116.861 132.685 116.06 132.683 115.249C132.682 114.438 132.853 113.636 133.185 112.896C134.714 109.477 135.747 106.898 136.268 105.252C136.78 103.639 137.309 101.312 137.822 98.322C137.998 97.3063 138.442 96.3559 139.108 95.5689C139.774 94.7819 140.638 94.1867 141.61 93.8448L155.453 88.9308L156.058 79.3548L142.45 73.5252C141.726 73.2168 141.072 72.7644 140.527 72.1955C139.983 71.6266 139.56 70.953 139.283 70.2156C138.313 67.538 137.254 64.8934 136.108 62.286C135.023 60.0157 133.847 57.7907 132.58 55.6164C132.142 54.8482 131.887 53.9889 131.836 53.1057C131.785 52.2226 131.939 51.3396 132.286 50.526L138.376 36.246L131.959 29.61L119.459 36.2292C118.643 36.662 117.737 36.8973 116.814 36.9163C115.89 36.9353 114.975 36.7373 114.142 36.3384C111.489 35.0193 108.776 33.8252 106.011 32.76C103.654 31.9683 101.249 31.3231 98.8123 30.828C97.8453 30.623 96.9463 30.1754 96.1998 29.5274C95.4534 28.8794 94.8839 28.0522 94.5451 27.1236L88.9339 11.5584L88.9423 11.5668ZM84.2047 47.3844C104.659 47.3844 121.249 63.7896 121.249 84.0168C121.249 104.244 104.659 120.641 84.2047 120.641C63.7423 120.641 47.1607 104.244 47.1607 84.0168C47.1607 63.7896 63.7423 47.3928 84.2047 47.3928V47.3844ZM84.2047 58.9596C70.2019 58.9596 58.8535 70.1736 58.8535 84.0168C58.8535 97.86 70.2019 109.082 84.2047 109.082C98.1991 109.082 109.547 97.86 109.547 84.0168C109.547 70.1736 98.2075 58.9596 84.2047 58.9596Z" fill="#67A8D2"/>
</svg>
