<svg width="294" height="293" viewBox="0 0 294 293" fill="none" xmlns="http://www.w3.org/2000/svg">
<path d="M206.888 171C199.719 171.075 192.734 173.273 186.814 177.315C180.894 181.358 176.305 187.065 173.627 193.714C170.948 200.364 170.3 207.658 171.765 214.675C173.23 221.693 176.742 228.119 181.857 233.142C186.972 238.164 193.461 241.558 200.503 242.895C207.546 244.232 214.828 243.452 221.427 240.653C228.027 237.854 233.649 233.161 237.583 227.169C241.518 221.176 243.588 214.152 243.532 206.983C243.383 197.372 239.454 188.206 232.595 181.471C225.736 174.736 216.5 170.974 206.888 171ZM206.888 228.422C202.733 228.348 198.692 227.051 195.269 224.694C191.846 222.337 189.193 219.024 187.642 215.169C186.09 211.313 185.708 207.087 186.544 203.016C187.38 198.945 189.396 195.21 192.341 192.278C195.286 189.346 199.03 187.346 203.104 186.528C207.179 185.711 211.404 186.111 215.252 187.679C219.101 189.248 222.402 191.915 224.744 195.348C227.086 198.781 228.365 202.828 228.421 206.983C228.434 209.81 227.885 212.612 226.806 215.225C225.727 217.838 224.14 220.21 222.136 222.205C220.133 224.199 217.754 225.776 215.136 226.843C212.518 227.911 209.715 228.447 206.888 228.422Z" fill="#67A8D2"/>
<path d="M293.778 198.35C293.87 196.15 293.286 193.975 292.104 192.117C290.922 190.26 289.199 188.809 287.167 187.961L272.434 183.617C271.741 181.602 270.922 179.619 269.978 177.667L276.778 165.106C277.846 163.062 278.23 160.729 277.873 158.451C277.516 156.173 276.437 154.069 274.795 152.45L262.139 139.983C260.509 138.356 258.4 137.295 256.122 136.955C253.844 136.615 251.518 137.014 249.484 138.095L236.828 144.8C234.764 143.814 232.652 142.931 230.5 142.156L226.061 128.178C225.316 126.071 223.934 124.248 222.106 122.962C220.279 121.675 218.096 120.99 215.861 121H197.728C195.447 121.016 193.229 121.757 191.396 123.115C189.563 124.473 188.208 126.378 187.528 128.556L183.372 142.061C181.189 142.835 179.045 143.717 176.95 144.706L164.483 138.095C162.47 137.025 160.168 136.622 157.911 136.945C155.653 137.267 153.556 138.298 151.922 139.889L138.984 152.261C137.32 153.887 136.228 156.008 135.87 158.306C135.513 160.605 135.909 162.957 137 165.011L143.611 177.1C142.604 179.115 141.722 181.161 140.967 183.239L127.65 187.583C125.432 188.238 123.486 189.597 122.106 191.453C120.726 193.31 119.987 195.565 120 197.878V215.539C120.107 217.779 120.911 219.929 122.3 221.69C123.688 223.451 125.592 224.734 127.745 225.361L141.628 229.517C142.383 231.532 143.265 233.546 144.272 235.561L137.472 248.311C136.37 250.356 135.958 252.702 136.298 255C136.639 257.298 137.713 259.424 139.361 261.061L152.017 273.528C153.647 275.155 155.756 276.216 158.034 276.556C160.311 276.896 162.638 276.497 164.672 275.417L177.611 268.617C179.563 269.498 181.546 270.317 183.561 271.072L187.717 284.956C188.402 287.149 189.771 289.065 191.623 290.424C193.475 291.784 195.714 292.515 198.011 292.511H215.956C218.221 292.475 220.417 291.725 222.231 290.369C224.046 289.012 225.386 287.118 226.061 284.956L230.217 271.072C232.2 270.411 234.184 269.561 236.072 268.711L249.106 275.606C251.129 276.663 253.437 277.051 255.695 276.711C257.952 276.371 260.044 275.323 261.667 273.717L274.322 261.25C275.986 259.624 277.078 257.504 277.436 255.205C277.793 252.907 277.397 250.554 276.306 248.5L269.411 235.845C270.293 233.956 271.08 232.067 271.772 230.178L285.939 226.022C288.162 225.411 290.127 224.096 291.54 222.274C292.953 220.452 293.738 218.222 293.778 215.917V198.35ZM278.667 212.517L259.778 217.995L258.645 221.961C257.598 225.534 256.173 228.985 254.395 232.256L252.411 235.845L261.856 252.75L253.734 260.683L236.545 251.239L233.05 253.128C229.686 254.942 226.141 256.399 222.472 257.472L218.506 258.606L212.934 277.495H201.317L195.745 259.078L191.778 257.945C188.083 256.902 184.506 255.478 181.106 253.695L177.611 251.806L160.517 261.25L152.395 253.222L161.839 236.033L159.761 232.445C157.831 229.068 156.279 225.489 155.133 221.772L153.906 217.9L135.489 212.422V200.995L153.811 195.517L154.945 191.645C156.078 187.893 157.631 184.282 159.572 180.878L161.65 177.195L152.206 160.856L160.422 152.922L177.139 161.8L180.728 159.817C184.231 157.875 187.937 156.323 191.778 155.189L195.65 154.056L201.222 136.017H212.839L218.317 153.961L222.189 155.095C225.994 156.204 229.668 157.724 233.145 159.628L236.733 161.611L253.734 152.639L261.856 160.667L252.411 177.383L254.395 180.972C256.265 184.355 257.753 187.934 258.833 191.645L259.967 195.611L278.195 200.995L278.667 212.517Z" fill="#67A8D2"/>
<path d="M76.879 230.688C80.826 229.841 84.457 227.906 87.3613 225.102C90.2655 222.298 92.3269 218.737 93.3123 214.822C98.4123 213.499 103.323 211.799 108.329 210.005V198.672C108.368 197.052 108.558 195.44 108.896 193.855C103.278 196.122 97.5397 198.076 91.7067 199.711C89.6686 195.676 86.4128 192.386 82.4005 190.305C78.3881 188.224 73.8228 187.459 69.3512 188.117C64.8796 188.775 60.7285 190.824 57.4859 193.972C54.2433 197.121 52.0738 201.21 51.2845 205.661H47.0345C30.5115 186.479 20.9299 162.292 19.8345 136.999C32.5266 119.211 48.5669 104.069 67.0567 92.4217C69.8076 95.2358 73.2919 97.223 77.1146 98.1578C80.9373 99.0926 84.9454 98.9377 88.6845 97.7106C99.7656 115.889 114.072 131.893 130.901 144.933C131.518 144.139 132.18 143.383 132.885 142.666L141.857 134.072C125.376 121.779 111.426 106.418 100.773 88.8328C102.914 85.4388 104.059 81.5122 104.079 77.4995V75.4217C138.61 63.8177 175.987 63.8177 210.518 75.4217C207.971 86.2761 204.332 96.8448 199.657 106.966H216.185C219.692 98.632 222.565 90.0445 224.779 81.2773C228.84 83.0717 232.712 85.1495 236.679 87.3217C242.09 99.5365 245.288 112.616 246.123 125.949C249.685 123.957 253.663 122.825 257.74 122.644C259.912 122.687 262.07 123.004 264.162 123.588C262.495 98.1128 253.489 73.6646 238.23 53.1962C222.971 32.7278 202.113 17.1145 178.174 8.24189C154.236 -0.630732 128.24 -2.38326 103.327 3.19595C78.4141 8.77516 55.6491 21.4475 37.7811 39.6826C19.9131 57.9177 7.70641 80.9358 2.63501 105.957C-2.43639 130.978 -0.155557 156.933 9.20207 180.686C18.5597 204.439 34.5939 224.976 55.3684 239.815C76.1429 254.654 100.769 263.162 126.273 264.311C123.875 258.243 123.875 251.49 126.273 245.422C108.891 244.393 91.9841 239.35 76.879 230.688ZM132.696 18.755C147.874 18.778 162.893 21.8495 176.861 27.7873C190.83 33.7252 203.463 42.4084 214.012 53.3217C214.012 55.6828 214.012 58.1384 213.257 60.4995C175.323 47.9974 134.323 48.3625 96.6179 61.5384C93.412 58.7956 89.4711 57.055 85.2845 56.5328C82.7564 48.7269 80.8304 40.7387 79.5234 32.6384C95.8285 23.6892 114.097 18.9193 132.696 18.755ZM65.6401 41.0439C66.8615 47.1658 68.4062 53.2188 70.2679 59.1773C67.1783 61.1118 64.6304 63.799 62.8629 66.9871C61.0954 70.1752 60.1662 73.7598 60.1623 77.405V78.8217C45.8921 87.8003 32.9259 98.7008 21.629 111.216C26.9199 83.1102 42.6412 58.0437 65.6401 41.0439Z" fill="#67A8D2"/>
</svg>
