<svg width="151" height="39" viewBox="0 0 151 39" fill="none" xmlns="http://www.w3.org/2000/svg">
<path d="M7 3.5C7 5.433 5.433 7 3.5 7C1.567 7 0 5.433 0 3.5C0 1.567 1.567 0 3.5 0C5.433 0 7 1.567 7 3.5Z" fill="white"/>
<path fill-rule="evenodd" clip-rule="evenodd" d="M4.41032 7.52791C3.5431 6.48004 2.79627 5.4848 2.17136 4.55975L3.82863 3.44019C4.41305 4.30529 5.12012 5.24869 5.9511 6.25275L4.41032 7.52791ZM15.1082 17.6641C13.0255 16.0534 11.155 14.4504 9.49738 12.8956L10.8656 11.4369C12.4762 12.9476 14.2983 14.5094 16.3317 16.082L15.1082 17.6641ZM27.4256 25.6699C25.1829 24.4487 23.0766 23.189 21.107 21.9116L22.1952 20.2336C24.1224 21.4834 26.1848 22.7169 28.3821 23.9135L27.4256 25.6699ZM139.614 24.3961L151 22.4771L146.969 33.2975L139.614 24.3961ZM40.7786 31.7377C38.4128 30.857 36.1492 29.9194 33.9879 28.9383L34.8145 27.1171C36.934 28.0792 39.1546 28.9991 41.4764 29.8634L40.7786 31.7377ZM142.154 29.3C140.137 30.2279 137.826 31.1567 135.209 32.052L134.561 30.1596C137.12 29.2846 139.368 28.3805 141.319 27.483L142.154 29.3ZM54.8223 35.9238C52.378 35.3654 50.0147 34.7417 47.7325 34.0624L48.3031 32.1455C50.5442 32.8126 52.8658 33.4253 55.2678 33.9741L54.8223 35.9238ZM128.068 34.1875C125.818 34.7736 123.403 35.3277 120.82 35.8371L120.433 33.8749C122.978 33.373 125.354 32.8277 127.564 32.2521L128.068 34.1875ZM113.517 37.0818C111.174 37.4222 108.717 37.7255 106.144 37.9849L105.944 35.995C108.488 35.7384 110.916 35.4386 113.229 35.1026L113.517 37.0818ZM69.2807 38.2991C66.7927 38.0426 64.371 37.7179 62.0157 37.3319L62.3391 35.3583C64.6552 35.7378 67.0374 36.0573 69.4858 36.3097L69.2807 38.2991ZM98.7658 38.5827C96.3871 38.7303 93.9219 38.8414 91.3686 38.9117L91.3136 36.9125C93.8443 36.8428 96.2866 36.7327 98.642 36.5866L98.7658 38.5827ZM80.2562 38.9578C79.0203 38.9353 77.7985 38.8961 76.5908 38.8409L76.6821 36.843C77.8715 36.8974 79.0749 36.936 80.2925 36.9581C81.5362 36.9807 82.7617 36.994 83.9692 36.9983L83.9619 38.9983C82.7447 38.9939 81.5095 38.9805 80.2562 38.9578Z" fill="white"/>
</svg>
